# xmcd CD database file
#
# Track frame offsets:
#	150
#	12460
#	22841
#	36629
#	53705
#	66149
#	77673
#	89523
#	101725
#	111864
#	126262
#	136088
#	154505
#	167751
#	180200
#	194257
#	204154
#	214457
#	226823
#	235254
#
# Disc length: 3306 seconds
#
# Revision: 3
# Processed by: cddbd v1.5.2PL0 Copyright (c) Steve Scherf et al.
# Submitted via: CDex 1.50beta10
#
DISCID=070ce814
DTITLE=Various Artist - Country Greats Disc 4
DYEAR=1900
DGENRE=Country
TTITLE0=Wasted Days And Wasted Nights - Freddy Fender
TTITLE1=Abilene - George Hamilton IV
TTITLE2=Home Is Where You're Happy - Willie Nelson
TTITLE3=Tar And Cement - Denise Morrison
TTITLE4=Delta Darwin - Nola Harris
TTITLE5=Bouquet Of Roses - Eddy Arnold
TTITLE6=The End Of The World - Skeeter Davis
TTITLE7=I Love You Because  - Stonewall Jackson
TTITLE8=Three Cigarettes In An Ashtray - Patsy Cline
TTITLE9=The Shores Of Botany Bay - The Bushwakers
TTITLE10=Make The World Go Away - Ray Price
TTITLE11=Midnight Train To Georgia - Lynn Anderson
TTITLE12=Dream Baby - Lacy J Dalton
TTITLE13=Crazy - Wanda Jackson
TTITLE14=Amanda - Lee Conway
TTITLE15=Hey Porter - Johnny Cash
TTITLE16=Jambalaya - Johnny Russell
TTITLE17=Blackland Farmer - Frankie Miller
TTITLE18=Odds And Ends, Bits And Pieces - Warren Smith
TTITLE19=There's Never Been A Time - Don Williams
EXTD=
EXTT0=
EXTT1=
EXTT2=
EXTT3=
EXTT4=
EXTT5=
EXTT6=
EXTT7=
EXTT8=
EXTT9=
EXTT10=
EXTT11=
EXTT12=
EXTT13=
EXTT14=
EXTT15=
EXTT16=
EXTT17=
EXTT18=
EXTT19=
PLAYORDER=
